{
  "accessors": [
    {
      "bufferView": 2,
      "componentType": 5126,
      "count": 266,
      "max": [
        0.9346665143966675,
        1.894970417022705,
        0.9346665143966675
      ],
      "min": [
        -0.9346665143966675,
        0.28394314646720886,
        -0.9346665143966675
      ],
      "type": "VEC3"
    },
    {
      "bufferView": 2,
      "byteOffset": 3192,
      "componentType": 5126,
      "count": 266,
      "max": [
        0.9918258786201477,
        1.0,
        0.9918258786201477
      ],
      "min": [
        -0.9918258786201477,
        -1.0,
        -0.9918258786201477
      ],
      "type": "VEC3"
    },
    {
      "bufferView": 1,
      "componentType": 5126,
      "count": 266,
      "max": [
        0.0,
        0.0
      ],
      "min": [
        0.0,
        0.0
      ],
      "type": "VEC2"
    },
    {
      "bufferView": 0,
      "componentType": 5125,
      "count": 1584,
      "type": "SCALAR"
    },
    {
      "bufferView": 2,
      "byteOffset": 6384,
      "componentType": 5126,
      "count": 2500,
      "max": [
        2.9533181190490723,
        1.3941833972930908,
        3.0027027130126953
      ],
      "min": [
        -0.12433751672506332,
        0.018933432176709175,
        -0.606867790222168
      ],
      "type": "VEC3"
    },
    {
      "bufferView": 2,
      "byteOffset": 36384,
      "componentType": 5126,
      "count": 2500,
      "max": [
        1.0,
        0.9999901056289673,
        0.997822642326355
      ],
      "min": [
        -1.0,
        -0.9994219541549683,
        -0.9964203238487244
      ],
      "type": "VEC3"
    },
    {
      "bufferView": 0,
      "byteOffset": 6336,
      "componentType": 5125,
      "count": 14976,
      "type": "SCALAR"
    },
    {
      "bufferView": 2,
      "byteOffset": 66384,
      "componentType": 5126,
      "count": 2500,
      "max": [
        1.1559568643569946,
        1.3941833972930908,
        3.0027027130126953
      ],
      "min": [
        -0.12433751672506332,
        0.018933432176709175,
        -2.794121742248535
      ],
      "type": "VEC3"
    },
    {
      "bufferView": 2,
      "byteOffset": 96384,
      "componentType": 5126,
      "count": 2500,
      "max": [
        1.0,
        0.9999901056289673,
        0.9921191334724426
      ],
      "min": [
        -1.0,
        -0.9994219541549683,
        -0.9964203238487244
      ],
      "type": "VEC3"
    },
    {
      "bufferView": 0,
      "byteOffset": 66240,
      "componentType": 5125,
      "count": 14976,
      "type": "SCALAR"
    },
    {
      "bufferView": 2,
      "byteOffset": 126384,
      "componentType": 5126,
      "count": 2500,
      "max": [
        0.12433751672506332,
        1.3941833972930908,
        3.0027027130126953
      ],
      "min": [
        -1.9877270460128784,
        0.018933432176709175,
        -2.288600444793701
      ],
      "type": "VEC3"
    },
    {
      "bufferView": 2,
      "byteOffset": 156384,
      "componentType": 5126,
      "count": 2500,
      "max": [
        1.0,
        0.9999899864196777,
        0.9950364828109741
      ],
      "min": [
        -1.0,
        -0.9994219541549683,
        -0.9964203238487244
      ],
      "type": "VEC3"
    },
    {
      "bufferView": 0,
      "byteOffset": 126144,
      "componentType": 5125,
      "count": 14976,
      "type": "SCALAR"
    },
    {
      "bufferView": 2,
      "byteOffset": 186384,
      "componentType": 5126,
      "count": 2500,
      "max": [
        0.12433751672506332,
        1.3941833972930908,
        3.0027027130126953
      ],
      "min": [
        -2.9717860221862793,
        0.018933432176709175,
        0.04255478084087372
      ],
      "type": "VEC3"
    },
    {
      "bufferView": 2,
      "byteOffset": 216384,
      "componentType": 5126,
      "count": 2500,
      "max": [
        1.0,
        0.9999899864196777,
        0.9986168742179871
      ],
      "min": [
        -1.0,
        -0.9994219541549683,
        -0.9995244741439819
      ],
      "type": "VEC3"
    },
    {
      "bufferView": 0,
      "byteOffset": 186048,
      "componentType": 5125,
      "count": 14976,
      "type": "SCALAR"
    },
    {
      "bufferView": 2,
      "byteOffset": 246384,
      "componentType": 5126,
      "count": 964,
      "max": [
        2.1549532413482666,
        0.9935942888259888,
        0.9423337578773499
      ],
      "min": [
        -0.8062769770622253,
        -0.15883611142635345,
        -1.1675235033035278
      ],
      "type": "VEC3"
    },
    {
      "bufferView": 2,
      "byteOffset": 257952,
      "componentType": 5126,
      "count": 964,
      "max": [
        0.9927201271057129,
        0.9999490976333618,
        0.9990589618682861
      ],
      "min": [
        -0.9932027459144592,
        -0.9997522830963135,
        -0.9935417175292969
      ],
      "type": "VEC3"
    },
    {
      "bufferView": 1,
      "byteOffset": 2128,
      "componentType": 5126,
      "count": 964,
      "max": [
        0.0,
        0.0
      ],
      "min": [
        0.0,
        0.0
      ],
      "type": "VEC2"
    },
    {
      "bufferView": 0,
      "byteOffset": 245952,
      "componentType": 5125,
      "count": 5760,
      "type": "SCALAR"
    }
  ],
  "asset": {
    "extras": {
      "author": "Bart (https://sketchfab.com/bartv)",
      "license": "CC-BY-4.0 (http://creativecommons.org/licenses/by/4.0/)",
      "source": "https://sketchfab.com/3d-models/spooky-spider-91692430be4a422ca5f56f1247f4b291",
      "title": "Spooky Spider"
    },
    "generator": "Sketchfab-11.94.0",
    "version": "2.0"
  },
  "bufferViews": [
    {
      "buffer": 0,
      "byteLength": 268992,
      "name": "floatBufferViews",
      "target": 34963
    },
    {
      "buffer": 0,
      "byteLength": 9840,
      "byteOffset": 268992,
      "byteStride": 8,
      "name": "floatBufferViews",
      "target": 34962
    },
    {
      "buffer": 0,
      "byteLength": 269520,
      "byteOffset": 278832,
      "byteStride": 12,
      "name": "floatBufferViews",
      "target": 34962
    }
  ],
  "buffers": [
    {
      "byteLength": 548352,
      "uri": "scene.bin"
    }
  ],
  "materials": [
    {
      "doubleSided": true,
      "name": "Black",
      "pbrMetallicRoughness": {
        "baseColorFactor": [
          0.0114606,
          0.0114606,
          0.0114606,
          1.0
        ],
        "metallicFactor": 0.0,
        "roughnessFactor": 0.780423
      }
    },
    {
      "doubleSided": true,
      "name": "White",
      "pbrMetallicRoughness": {
        "baseColorFactor": [
          0.8,
          0.8,
          0.8,
          1.0
        ],
        "metallicFactor": 0.0
      }
    }
  ],
  "meshes": [
    {
      "name": "Object_0",
      "primitives": [
        {
          "attributes": {
            "NORMAL": 1,
            "POSITION": 0,
            "TEXCOORD_0": 2
          },
          "indices": 3,
          "material": 0,
          "mode": 4
        }
      ]
    },
    {
      "name": "Object_1",
      "primitives": [
        {
          "attributes": {
            "NORMAL": 5,
            "POSITION": 4
          },
          "indices": 6,
          "material": 0,
          "mode": 4
        }
      ]
    },
    {
      "name": "Object_2",
      "primitives": [
        {
          "attributes": {
            "NORMAL": 8,
            "POSITION": 7
          },
          "indices": 9,
          "material": 0,
          "mode": 4
        }
      ]
    },
    {
      "name": "Object_3",
      "primitives": [
        {
          "attributes": {
            "NORMAL": 11,
            "POSITION": 10
          },
          "indices": 12,
          "material": 0,
          "mode": 4
        }
      ]
    },
    {
      "name": "Object_4",
      "primitives": [
        {
          "attributes": {
            "NORMAL": 14,
            "POSITION": 13
          },
          "indices": 15,
          "material": 0,
          "mode": 4
        }
      ]
    },
    {
      "name": "Object_5",
      "primitives": [
        {
          "attributes": {
            "NORMAL": 17,
            "POSITION": 16,
            "TEXCOORD_0": 18
          },
          "indices": 19,
          "material": 1,
          "mode": 4
        }
      ]
    }
  ],
  "nodes": [
    {
      "children": [
        1
      ],
      "matrix": [
        1.0,
        0.0,
        0.0,
        0.0,
        0.0,
        2.220446049250313e-16,
        -1.0,
        0.0,
        0.0,
        1.0,
        2.220446049250313e-16,
        0.0,
        0.0,
        0.0,
        0.0,
        1.0
      ],
      "name": "Sketchfab_model"
    },
    {
      "children": [
        2
      ],
      "name": "root"
    },
    {
      "children": [
        3,
        5,
        7,
        9,
        11,
        13
      ],
      "matrix": [
        1.0,
        0.0,
        0.0,
        0.0,
        0.0,
        2.220446049250313e-16,
        1.0,
        0.0,
        0.0,
        -1.0,
        2.220446049250313e-16,
        0.0,
        0.0,
        0.0,
        0.0,
        1.0
      ],
      "name": "GLTF_SceneRootNode"
    },
    {
      "children": [
        4
      ],
      "name": "Circle_2"
    },
    {
      "mesh": 0,
      "name": "Object_4"
    },
    {
      "children": [
        6
      ],
      "matrix": [
        0.6398156106866832,
        0.0,
        0.7685284538139279,
        0.0,
        -0.0,
        1.0,
        0.0,
        0.0,
        -0.7685284538139279,
        -0.0,
        0.6398156106866832,
        0.0,
        0.0,
        0.0,
        0.0,
        1.0
      ],
      "name": "Vert_3"
    },
    {
      "mesh": 1,
      "name": "Object_6"
    },
    {
      "children": [
        8
      ],
      "matrix": [
        0.1885872390795178,
        0.0,
        0.9820564409729029,
        0.0,
        -0.0,
        1.0,
        0.0,
        0.0,
        -0.9820564409729029,
        -0.0,
        0.1885872390795178,
        0.0,
        0.0,
        0.0,
        0.0,
        1.0
      ],
      "name": "Vert.001_4"
    },
    {
      "mesh": 2,
      "name": "Object_8"
    },
    {
      "children": [
        10
      ],
      "matrix": [
        -0.34900696333038916,
        0.0,
        0.9371201307980211,
        0.0,
        -0.0,
        1.0,
        0.0,
        0.0,
        -0.9371201307980211,
        -0.0,
        -0.34900696333038916,
        0.0,
        0.0,
        0.0,
        0.0,
        1.0
      ],
      "name": "Vert.002_5"
    },
    {
      "mesh": 3,
      "name": "Object_10"
    },
    {
      "children": [
        12
      ],
      "matrix": [
        -0.7560196645656869,
        0.0,
        0.6545489032837701,
        0.0,
        -0.0,
        1.0,
        0.0,
        0.0,
        -0.6545489032837701,
        -0.0,
        -0.7560196645656869,
        0.0,
        0.0,
        0.0,
        0.0,
        1.0
      ],
      "name": "Vert.003_6"
    },
    {
      "mesh": 4,
      "name": "Object_12"
    },
    {
      "children": [
        14
      ],
      "matrix": [
        -0.3174952750025645,
        -0.028084581255156178,
        0.12057140826167914,
        0.0,
        -0.10622403784399076,
        -0.10865618959080707,
        -0.305024169683586,
        0.0,
        0.06358193678784169,
        -0.3217678739584708,
        0.09247837994863824,
        0.0,
        0.2530765235424042,
        1.2216966152191162,
        0.7727940678596497,
        1.0
      ],
      "name": "Circle.001_7"
    },
    {
      "mesh": 5,
      "name": "Object_14"
    }
  ],
  "scene": 0,
  "scenes": [
    {
      "name": "Sketchfab_Scene",
      "nodes": [
        0
      ]
    }
  ]
}
